<svg width="256" height="256" viewBox="0 0 256 256" fill="none" xmlns="http://www.w3.org/2000/svg">
<g clip-path="url(#clip0_205_38)">
<rect width="256" height="256" rx="20" fill="#3D639C"/>
<g filter="url(#filter0_d_205_38)">
<rect x="126.421" y="3" width="178.954" height="178.954" rx="10" transform="rotate(44.4955 126.421 3)" fill="#FF3366"/>
</g>
<path d="M201.248 165.002C201.765 165.519 202.175 166.132 202.455 166.807C202.735 167.483 202.879 168.207 202.879 168.938C202.879 169.669 202.735 170.392 202.455 171.068C202.175 171.743 201.765 172.356 201.248 172.873L184.56 189.56C183.783 190.339 182.791 190.87 181.711 191.085C180.632 191.3 179.513 191.19 178.496 190.768C177.479 190.347 176.61 189.633 175.999 188.718C175.387 187.802 175.062 186.726 175.063 185.625V174.5C167.207 174.39 159.487 172.436 152.524 168.796C145.562 165.156 139.552 159.931 134.978 153.543L105.969 112.937C102.363 107.896 97.6085 103.788 92.0984 100.951C86.5882 98.1143 80.4814 96.6313 74.2839 96.625H58.25C56.7747 96.625 55.3599 96.039 54.3167 94.9958C53.2735 93.9526 52.6875 92.5378 52.6875 91.0625C52.6875 89.5872 53.2735 88.1724 54.3167 87.1292C55.3599 86.086 56.7747 85.5 58.25 85.5H74.2839C82.2514 85.5066 90.1027 87.4117 97.1872 91.0573C104.272 94.703 110.386 99.9843 115.022 106.464L144.031 147.07C147.572 152.021 152.222 156.075 157.611 158.906C163 161.738 168.976 163.268 175.063 163.375V152.25C175.062 151.149 175.387 150.073 175.999 149.157C176.61 148.242 177.479 147.528 178.496 147.107C179.513 146.685 180.632 146.575 181.711 146.79C182.791 147.005 183.783 147.536 184.56 148.315L201.248 165.002ZM135.43 115.398C136.024 115.823 136.696 116.126 137.408 116.291C138.12 116.456 138.857 116.479 139.577 116.359C140.298 116.239 140.988 115.978 141.608 115.591C142.227 115.205 142.765 114.7 143.189 114.105L144.024 112.944C147.564 107.989 152.215 103.932 157.605 101.098C162.995 98.2646 168.974 96.7325 175.063 96.625V107.75C175.062 108.851 175.387 109.927 175.999 110.843C176.61 111.758 177.479 112.472 178.496 112.893C179.513 113.315 180.632 113.425 181.711 113.21C182.791 112.995 183.783 112.464 184.56 111.685L201.248 94.998C201.765 94.4814 202.175 93.8679 202.455 93.1926C202.735 92.5173 202.879 91.7935 202.879 91.0625C202.879 90.3315 202.735 89.6077 202.455 88.9324C202.175 88.2571 201.765 87.6436 201.248 87.127L184.56 70.4395C183.783 69.6607 182.791 69.1302 181.711 68.9152C180.632 68.7003 179.513 68.8104 178.496 69.2318C177.479 69.6532 176.61 70.3668 175.999 71.2824C175.387 72.1979 175.062 73.2742 175.063 74.375V85.5C167.207 85.6103 159.487 87.5642 152.524 91.2043C145.562 94.8443 139.552 100.069 134.978 106.457L134.143 107.618C133.715 108.213 133.409 108.886 133.242 109.6C133.074 110.313 133.05 111.053 133.169 111.776C133.289 112.499 133.55 113.191 133.938 113.813C134.326 114.434 134.833 114.973 135.43 115.398ZM114.57 144.602C113.976 144.177 113.304 143.874 112.592 143.709C111.88 143.544 111.143 143.521 110.423 143.641C109.702 143.761 109.012 144.022 108.392 144.409C107.773 144.795 107.235 145.3 106.811 145.895L105.976 147.056C102.371 152.099 97.6148 156.21 92.1033 159.048C86.5917 161.886 80.4832 163.369 74.2839 163.375H58.25C56.7747 163.375 55.3599 163.961 54.3167 165.004C53.2735 166.047 52.6875 167.462 52.6875 168.938C52.6875 170.413 53.2735 171.828 54.3167 172.871C55.3599 173.914 56.7747 174.5 58.25 174.5H74.2839C82.2514 174.493 90.1027 172.588 97.1872 168.943C104.272 165.297 110.386 160.016 115.022 153.536L115.857 152.375C116.284 151.781 116.589 151.108 116.756 150.395C116.922 149.682 116.947 148.944 116.827 148.221C116.708 147.499 116.447 146.808 116.06 146.187C115.672 145.565 115.166 145.027 114.57 144.602Z" fill="white"/>
</g>
<defs>
<filter id="filter0_d_205_38" x="1.1416" y="7.14159" width="252.786" height="252.786" filterUnits="userSpaceOnUse" color-interpolation-filters="sRGB">
<feFlood flood-opacity="0" result="BackgroundImageFix"/>
<feColorMatrix in="SourceAlpha" type="matrix" values="0 0 0 0 0 0 0 0 0 0 0 0 0 0 0 0 0 0 127 0" result="hardAlpha"/>
<feOffset dy="4"/>
<feGaussianBlur stdDeviation="2"/>
<feComposite in2="hardAlpha" operator="out"/>
<feColorMatrix type="matrix" values="0 0 0 0 0 0 0 0 0 0 0 0 0 0 0 0 0 0 0.25 0"/>
<feBlend mode="normal" in2="BackgroundImageFix" result="effect1_dropShadow_205_38"/>
<feBlend mode="normal" in="SourceGraphic" in2="effect1_dropShadow_205_38" result="shape"/>
</filter>
<clipPath id="clip0_205_38">
<rect width="256" height="256" fill="white"/>
</clipPath>
</defs>
</svg>
